<svg xmlns="http://www.w3.org/2000/svg" xml:space="preserve" width="1.99999in" height="1.99999in" version="1.1" style="shape-rendering:geometricPrecision; text-rendering:geometricPrecision; image-rendering:optimizeQuality; fill-rule:evenodd; clip-rule:evenodd" viewBox="0 0 2000 2000" xmlns:xlink="http://www.w3.org/1999/xlink">
 <defs>
  <style type="text/css">
   
    .fil0 {fill:none}
    .fil1 {fill:url(#id0)}
   
  </style>
  <linearGradient id="id0" gradientUnits="userSpaceOnUse" x1="999.996" y1="146.665" x2="999.996" y2="1853.32">
   <stop offset="0" style="stop-opacity: 1; stop-color: rgb(157, 179, 184);" id="id_108"></stop>
   <stop offset="0.509804" style="stop-opacity: 1; stop-color: rgb(157, 179, 184);" id="id_109"></stop>
   <stop offset="1" style="stop-opacity: 1; stop-color: rgb(148, 162, 166);" id="id_110"></stop>
  </linearGradient>
 </defs>
 <rect class="fil0" width="2000" height="2000" id="id_106"></rect>
 <g id="Layer_x0020_1">
  <metadata id="CorelCorpID_0Corel-Layer"></metadata>
  <path class="fil1" d="M1512 838c0,-12 -11,-23 -24,-23 -12,0 -23,11 -23,23 0,13 11,24 23,24 13,0 24,-11 24,-24zm-431 955c-20,0 -40,-1 -60,-4 -33,40 -90,64 -157,64 -1,0 -3,0 -5,0 -64,-1 -120,-25 -151,-64 -20,3 -40,4 -61,4 -213,0 -386,-173 -386,-386 0,-52 27,-108 64,-187 83,-177 223,-471 223,-1050 0,-13 10,-23 23,-23l586 0c13,0 24,10 24,23 0,45 1,90 2,134 51,-24 107,-37 166,-37 215,0 390,175 390,390 0,215 -175,391 -390,391 -7,0 -15,-1 -22,-1 27,68 54,125 76,173 38,79 65,136 65,187 0,213 -174,386 -387,386zm-91 -41c0,-1 0,-1 1,-2 0,0 1,-1 1,-2 49,-86 111,-128 190,-181l2 -2c11,-7 25,-4 32,7 8,10 5,25 -6,32l-2 2c-67,45 -118,79 -159,139 10,1 21,2 32,2 187,0 340,-153 340,-340 0,-41 -25,-94 -60,-167 -25,-54 -56,-119 -86,-200 -173,-33 -305,-180 -316,-360l-114 0 0 255c0,13 -11,23 -23,23 -13,0 -24,-10 -24,-23l0 -278c0,-13 11,-23 24,-23l137 0c8,-128 77,-239 179,-305 -2,-45 -4,-90 -4,-136l-540 0c-3,574 -143,869 -227,1047 -35,73 -60,126 -60,167 0,187 153,340 340,340 11,0 23,-1 34,-2 -38,-57 -99,-98 -159,-138l-4 -3c-10,-7 -13,-22 -6,-32 7,-11 22,-14 32,-7l4 3c69,46 146,98 187,177 1,2 1,3 2,5 1,1 1,1 2,2 21,33 66,54 121,55 57,1 108,-21 130,-55zm359 -1439c-190,0 -344,155 -344,344 0,190 154,344 344,344 189,0 344,-154 344,-344 0,-189 -155,-344 -344,-344zm-806 1109c0,-13 -10,-23 -23,-23 -13,0 -23,10 -23,23 0,13 10,24 23,24 13,0 23,-11 23,-24zm160 -31c0,-13 -10,-24 -23,-24 -13,0 -23,11 -23,24 0,13 10,23 23,23 13,0 23,-10 23,-23zm134 44c0,-13 -11,-24 -24,-24 -13,0 -23,11 -23,24 0,13 10,23 23,23 13,0 24,-10 24,-23zm154 -109c0,-12 -11,-23 -24,-23 -12,0 -23,11 -23,23 0,13 11,24 23,24 13,0 24,-11 24,-24zm279 105c0,-13 -11,-24 -23,-24 -13,0 -24,11 -24,24 0,13 11,23 24,23 12,0 23,-10 23,-23zm-192 37c0,-13 -10,-23 -23,-23 -13,0 -23,10 -23,23 0,13 10,23 23,23 13,0 23,-10 23,-23zm96 -175c0,-13 -10,-23 -23,-23 -13,0 -24,10 -24,23 0,13 11,23 24,23 13,0 23,-10 23,-23zm-308 -104c0,-13 -11,-23 -24,-23 -12,0 -23,10 -23,23 0,13 11,23 23,23 13,0 24,-10 24,-23zm-150 83c0,-13 -11,-23 -24,-23 -12,0 -23,10 -23,23 0,13 11,24 23,24 13,0 24,-11 24,-24zm-175 -12c0,-13 -11,-24 -24,-24 -13,0 -23,11 -23,24 0,13 10,23 23,23 13,0 24,-10 24,-23zm62 -138c0,-13 -10,-23 -23,-23 -13,0 -23,10 -23,23 0,13 10,24 23,24 13,0 23,-11 23,-24zm498 0c0,-13 -11,-23 -24,-23 -12,0 -23,10 -23,23 0,13 11,24 23,24 13,0 24,-11 24,-24zm-152 -66c0,-13 -10,-24 -23,-24 -13,0 -24,11 -24,24 0,13 11,23 24,23 13,0 23,-10 23,-23zm-181 8c0,-13 -10,-23 -23,-23 -13,0 -23,10 -23,23 0,13 10,23 23,23 13,0 23,-10 23,-23zm525 -576c0,-12 -10,-23 -23,-23 -13,0 -23,11 -23,23 0,13 10,24 23,24 13,0 23,-11 23,-24zm200 -12c0,-13 -10,-23 -23,-23 -13,0 -23,10 -23,23 0,13 10,23 23,23 13,0 23,-10 23,-23zm73 117c0,-13 -10,-24 -23,-24 -13,0 -24,11 -24,24 0,12 11,23 24,23 13,0 23,-11 23,-23zm-8 116c0,-13 -11,-23 -24,-23 -13,0 -23,10 -23,23 0,13 10,24 23,24 13,0 24,-11 24,-24zm-188 117c0,-13 -10,-23 -23,-23 -13,0 -24,10 -24,23 0,13 11,23 24,23 13,0 23,-10 23,-23zm-192 -167c0,-13 -10,-23 -23,-23 -13,0 -23,10 -23,23 0,13 10,24 23,24 13,0 23,-11 23,-24zm213 -11c0,-13 -11,-23 -24,-23 -12,0 -23,10 -23,23 0,13 11,24 23,24 13,0 24,-11 24,-24zm-146 114c0,-13 -10,-24 -23,-24 -13,0 -24,11 -24,24 0,13 11,23 24,23 13,0 23,-10 23,-23z" id="id_107"></path>
 </g>
</svg>